<?xml version="1.0" standalone="no"?>
<!DOCTYPE svg PUBLIC "-//W3C//DTD SVG 20010904//EN"
 "http://www.w3.org/TR/2001/REC-SVG-20010904/DTD/svg10.dtd">
<svg version="1.0" xmlns="http://www.w3.org/2000/svg"
 width="1024.000000pt" height="1024.000000pt" viewBox="0 0 1024.000000 1024.000000"
 preserveAspectRatio="xMidYMid meet">

<g transform="translate(0.000000,1024.000000) scale(0.100000,-0.100000)"
fill="#000000" stroke="none">
<path d="M0 5120 l0 -5120 5120 0 5120 0 0 5120 0 5120 -5120 0 -5120 0 0
-5120z m6508 1488 l-3 -393 -904 -3 c-779 -2 -902 -4 -898 -16 4 -9 -1 -17
-11 -20 -12 -3 -11 -4 4 -3 26 2 97 -50 87 -65 -4 -7 -16 0 -32 20 l-26 31 0
-34 c0 -18 4 -37 8 -41 4 -5 5 0 1 11 -7 19 -7 19 13 2 11 -9 23 -14 26 -11 4
4 15 1 24 -7 17 -13 17 -13 3 6 -24 34 66 -51 317 -299 133 -132 239 -244 236
-249 -3 -6 -2 -7 4 -4 13 8 85 -57 81 -73 -2 -7 4 -14 13 -15 9 -2 48 -34 88
-73 65 -65 88 -94 59 -76 -7 4 -8 3 -4 -4 4 -6 12 -9 19 -7 7 3 84 -67 172
-155 127 -127 157 -162 147 -172 -6 -6 -12 -16 -12 -21 0 -5 7 -1 16 7 14 14
18 14 45 -6 34 -26 36 -34 8 -43 -11 -4 -18 -9 -16 -12 3 -2 14 0 26 6 17 9
25 6 51 -19 17 -17 28 -35 25 -40 -4 -6 -3 -9 2 -8 10 3 93 -65 93 -76 0 -4
-6 -4 -12 0 -10 6 -10 5 -1 -8 7 -8 11 -17 8 -20 -3 -3 1 -11 10 -18 10 -8 15
-9 15 -1 0 6 -4 11 -8 11 -5 0 -9 7 -9 15 0 8 2 15 3 15 11 0 269 -261 282
-285 27 -50 42 -99 36 -119 -4 -12 -2 -16 5 -12 8 5 11 -19 11 -80 0 -48 -3
-85 -6 -82 -3 4 -6 39 -7 80 0 40 -2 56 -5 36 -2 -21 -8 -38 -14 -38 -5 0 -7
-7 -4 -15 3 -9 0 -25 -7 -37 -16 -28 -69 -77 -83 -78 -7 0 -14 -6 -17 -13 -3
-8 -42 -22 -88 -32 -67 -14 -134 -18 -350 -19 l-268 -1 -228 225 c-125 124
-247 242 -270 262 -23 20 -37 38 -31 40 8 3 6 12 -6 29 l-18 24 7 -25 7 -25
-28 25 c-16 14 -32 30 -36 35 -16 23 -101 105 -107 105 -14 0 -112 115 -101
118 5 2 10 8 10 14 0 6 -6 5 -15 -2 -13 -10 -19 -9 -35 5 -12 10 -18 26 -15
35 3 9 -3 25 -15 35 -24 22 -27 14 -4 -10 9 -9 14 -19 11 -22 -10 -9 -100 85
-92 96 3 6 0 9 -7 6 -18 -7 -142 121 -132 136 4 8 3 9 -5 5 -15 -9 -140 99
-152 133 -5 13 -12 21 -15 18 -8 -8 -54 35 -48 45 3 5 0 7 -8 6 -7 -2 -12 3
-10 10 1 8 -1 11 -6 8 -12 -7 -64 48 -55 58 5 4 3 6 -2 4 -14 -4 -166 143
-159 154 3 5 0 7 -8 6 -7 -2 -12 4 -10 12 2 8 0 12 -4 7 -10 -10 -65 43 -57
56 3 6 1 7 -4 4 -17 -10 -122 108 -147 165 -58 130 -55 244 11 380 61 128 229
335 453 560 145 145 207 187 311 207 24 5 455 9 957 10 l912 1 -2 -392z
m-1753 -498 c10 -11 16 -20 13 -20 -3 0 -13 9 -23 20 -10 11 -16 20 -13 20 3
0 13 -9 23 -20z"/>
<path d="M4640 6135 c0 -8 5 -15 10 -15 6 0 10 7 10 15 0 8 -4 15 -10 15 -5 0
-10 -7 -10 -15z"/>
<path d="M3910 6090 c0 -13 5 -18 15 -14 12 5 13 10 4 20 -15 19 -19 18 -19
-6z"/>
<path d="M4043 6083 c9 -2 23 -2 30 0 6 3 -1 5 -18 5 -16 0 -22 -2 -12 -5z"/>
<path d="M4800 5980 c0 -5 5 -10 10 -10 6 0 10 5 10 10 0 6 -4 10 -10 10 -5 0
-10 -4 -10 -10z"/>
<path d="M4886 5971 c-8 -12 4 -41 16 -41 6 0 5 6 -2 15 -6 8 -9 19 -5 25 3 5
4 10 1 10 -3 0 -7 -4 -10 -9z"/>
<path d="M3870 5889 c0 -5 5 -7 10 -4 6 3 10 8 10 11 0 2 -4 4 -10 4 -5 0 -10
-5 -10 -11z"/>
<path d="M4965 5889 c-4 -6 -4 -13 -1 -16 3 -4 6 -1 6 7 0 10 3 10 15 0 9 -7
18 -10 21 -7 3 3 -3 10 -15 16 -14 8 -22 8 -26 0z"/>
<path d="M3901 5854 c0 -11 3 -14 6 -6 3 7 2 16 -1 19 -3 4 -6 -2 -5 -13z"/>
<path d="M5125 5701 c-3 -5 0 -13 6 -17 7 -4 9 -3 5 4 -3 5 0 13 6 15 9 4 10
6 1 6 -6 1 -14 -3 -18 -8z"/>
<path d="M5204 5667 c0 -14 7 -23 18 -23 22 0 22 -2 -1 25 l-19 22 2 -24z"/>
<path d="M4044 5653 c19 -23 37 -22 35 0 0 8 -2 8 -6 -1 -4 -10 -10 -9 -27 5
l-21 18 19 -22z"/>
<path d="M4130 5565 c14 -17 26 -31 26 -33 1 -2 1 10 1 25 0 15 -2 22 -4 15
-4 -10 -10 -9 -27 5 -17 14 -16 12 4 -12z"/>
<path d="M5285 5579 c-4 -6 -5 -12 -2 -15 2 -3 7 2 10 11 7 17 1 20 -8 4z"/>
<path d="M5290 5526 c4 -4 16 -4 26 2 16 9 14 10 -8 9 -15 -1 -23 -6 -18 -11z"/>
<path d="M4219 5503 c-13 -16 -12 -17 4 -4 9 7 17 15 17 17 0 8 -8 3 -21 -13z"/>
<path d="M5367 5509 c7 -7 15 -10 18 -7 3 3 -2 9 -12 12 -14 6 -15 5 -6 -5z"/>
<path d="M5364 5470 c0 -13 4 -16 10 -10 7 7 7 13 0 20 -6 6 -10 3 -10 -10z"/>
<path d="M4275 5430 c-3 -5 0 -12 6 -16 8 -5 9 -3 4 6 -6 10 -4 12 8 7 9 -3
18 -3 21 1 3 4 -4 8 -14 9 -11 1 -22 -2 -25 -7z"/>
<path d="M4458 5273 c6 -2 9 -10 6 -15 -4 -7 -2 -8 5 -4 13 9 5 26 -12 25 -9
0 -8 -2 1 -6z"/>
<path d="M4621 5106 c-9 -11 -9 -16 1 -22 7 -4 10 -4 6 1 -4 4 -3 14 3 22 6 7
9 13 6 13 -2 0 -10 -6 -16 -14z"/>
<path d="M5760 5081 c0 -6 4 -13 10 -16 6 -3 7 1 4 9 -7 18 -14 21 -14 7z"/>
<path d="M5845 4990 c-8 -13 3 -30 18 -30 8 0 7 3 -2 9 -7 5 -10 14 -7 20 4 6
5 11 2 11 -3 0 -8 -4 -11 -10z"/>
<path d="M5900 4970 c-8 -5 -10 -10 -5 -10 6 0 17 5 25 10 8 5 11 10 5 10 -5
0 -17 -5 -25 -10z"/>
<path d="M4890 4950 c0 -5 5 -10 10 -10 6 0 10 5 10 10 0 6 -4 10 -10 10 -5 0
-10 -4 -10 -10z"/>
<path d="M6007 4809 c7 -7 15 -10 18 -7 3 3 -2 9 -12 12 -14 6 -15 5 -6 -5z"/>
<path d="M6083 4788 c-1 -11 1 -16 5 -12 4 5 11 12 15 15 5 3 2 9 -5 12 -9 3
-14 -3 -15 -15z"/>
<path d="M4926 4792 c-2 -4 7 -8 20 -8 13 -1 24 1 24 5 0 9 -38 12 -44 3z"/>
<path d="M6180 4660 c0 -5 5 -10 10 -10 6 0 10 5 10 10 0 6 -4 10 -10 10 -5 0
-10 -4 -10 -10z"/>
<path d="M6240 4535 c0 -8 5 -15 10 -15 6 0 10 7 10 15 0 8 -4 15 -10 15 -5 0
-10 -7 -10 -15z"/>
<path d="M5266 4466 c3 -8 17 -22 30 -31 13 -8 24 -22 24 -31 0 -8 5 -12 10
-9 13 8 -6 36 -43 65 -19 15 -25 17 -21 6z"/>
<path d="M5345 4391 c-3 -5 0 -13 6 -17 7 -4 9 -3 5 4 -3 5 0 13 6 15 9 4 10
6 1 6 -6 1 -14 -3 -18 -8z"/>
<path d="M5391 4343 c7 -10 15 -20 16 -22 2 -2 3 3 3 11 0 9 -7 19 -16 22 -15
6 -15 4 -3 -11z"/>
<path d="M5471 4307 c2 -1 13 -9 24 -17 19 -14 19 -14 6 3 -7 9 -18 17 -24 17
-6 0 -8 -1 -6 -3z"/>
<path d="M5480 4254 c0 -15 35 -46 43 -37 13 12 7 25 -8 19 -8 -3 -19 2 -24
12 -6 9 -11 12 -11 6z"/>
<path d="M5559 4169 c28 -30 41 -37 41 -21 0 4 -4 7 -10 7 -5 0 -9 3 -7 6 4
10 -25 39 -39 39 -7 0 -1 -13 15 -31z"/>
<path d="M5646 4135 c10 -8 23 -15 28 -15 6 0 1 7 -10 15 -10 8 -23 15 -28 15
-6 0 -1 -7 10 -15z"/>
<path d="M5626 4106 c10 -8 21 -12 24 -10 5 6 -21 24 -34 24 -6 0 -1 -6 10
-14z"/>
</g>
</svg>
